<svg xmlns="http://www.w3.org/2000/svg" width="182" height="170" viewBox="0 0 182 170">
<g>
<path d="M 0.00 85.00 L 0.00 0.00 L 91.00 0.00 L 182.00 0.00 L 182.00 85.00 L 182.00 170.00 L 91.00 170.00 L 0.00 170.00 L 0.00 85.00 ZM 66.10 125.86 C74.91,122.91 80.00,115.83 80.00,106.51 C80.00,99.21 78.44,95.74 70.03,84.34 C66.18,79.11 62.52,73.12 61.89,71.02 C60.40,66.07 61.41,60.93 64.53,57.57 C66.64,55.28 67.69,54.94 71.65,55.20 C77.87,55.60 79.90,58.35 80.82,67.56 C81.32,72.64 81.91,74.55 83.05,74.77 C84.26,75.00 84.98,73.07 86.35,65.92 C87.96,57.52 87.97,56.63 86.50,55.00 C82.45,50.53 68.17,49.88 61.69,53.88 C54.44,58.36 51.96,68.91 56.05,77.92 C57.16,80.36 60.51,85.34 63.50,89.00 C72.50,100.01 74.84,107.67 71.56,115.51 C69.81,119.71 64.73,122.99 59.97,123.00 C53.14,123.00 49.01,117.67 48.98,108.80 C48.97,103.06 47.72,99.86 46.13,101.51 C45.29,102.38 42.00,117.76 42.00,120.80 C42.00,122.24 46.76,124.74 51.72,125.91 C57.15,127.19 62.19,127.17 66.10,125.86 ZM 105.00 124.61 C105.00,123.74 103.35,122.98 100.50,122.55 C97.19,122.06 96.01,121.43 96.03,120.19 C96.08,117.72 102.61,91.06 103.35,90.32 C104.47,89.20 110.28,89.84 111.14,91.19 C111.59,91.91 111.98,94.41 111.98,96.75 C112.00,99.83 112.41,101.00 113.48,101.00 C114.30,101.00 115.20,99.99 115.48,98.75 C115.77,97.51 117.08,92.00 118.39,86.50 C119.69,81.00 120.57,76.16 120.32,75.75 C119.24,73.91 117.06,75.29 116.01,78.48 C115.37,80.40 113.70,82.88 112.29,83.98 C109.73,86.00 105.54,86.68 104.64,85.23 C104.16,84.45 109.11,62.14 110.53,58.67 C112.32,54.29 120.02,53.86 124.08,57.92 C126.66,60.51 127.00,61.55 127.00,66.86 C127.00,72.95 127.96,75.00 129.76,72.74 C131.00,71.17 134.17,54.08 133.43,52.89 C133.13,52.40 124.81,52.00 114.94,52.00 C100.28,52.00 97.00,52.25 97.00,53.39 C97.00,54.16 98.12,55.07 99.50,55.41 C101.17,55.83 102.00,56.73 102.00,58.12 C102.00,60.43 89.25,116.20 87.92,119.71 C87.42,121.03 85.78,122.26 83.86,122.76 C82.09,123.22 80.46,124.13 80.23,124.80 C79.94,125.69 83.05,126.00 92.42,126.00 C102.48,126.00 105.00,125.72 105.00,124.61 Z" fill="rgba(0,0,0,1)"/>
</g>
</svg>